<?xml version="1.0" encoding="iso-8859-1"?>
<!-- Uploaded to: SVG Repo, www.svgrepo.com, Generator: SVG Repo Mixer Tools -->
<svg version="1.1" id="Layer_1" xmlns="http://www.w3.org/2000/svg" xmlns:xlink="http://www.w3.org/1999/xlink" 
	 viewBox="0 0 512 512" xml:space="preserve">
<g>
	<ellipse style="fill:#4B92B9;" cx="256" cy="414.302" rx="93.936" ry="38.661"/>
	<path style="fill:#4B92B9;" d="M265.404,414.302h-18.808c-5.771,0-10.449-4.678-10.449-10.449v-52.245h39.706v52.245
		C275.853,409.624,271.175,414.302,265.404,414.302z"/>
	<path style="fill:#4B92B9;" d="M483.265,351.608H28.735c-11.542,0-20.898-9.356-20.898-20.898V79.935
		c0-11.542,9.356-20.898,20.898-20.898h454.531c11.542,0,20.898,9.356,20.898,20.898V330.71
		C504.163,342.252,494.807,351.608,483.265,351.608z"/>
</g>
<rect x="39.184" y="90.384" style="fill:#CAF9F4;" width="433.633" height="219.429"/>
<path d="M483.265,51.2H28.735C12.89,51.2,0,64.091,0,79.935V330.71c0,15.844,12.89,28.735,28.735,28.735H228.31v10.015
	c-37.954,4.688-74.083,19.875-74.083,44.842c0,26.508,43.753,46.498,101.773,46.498s101.773-19.99,101.773-46.498
	c0-24.967-36.129-40.152-74.083-44.842v-10.015h199.576c15.845,0,28.735-12.891,28.735-28.735V79.935
	C512,64.091,499.11,51.2,483.265,51.2z M325.251,396.856c10.707,5.392,16.849,11.751,16.849,17.446
	c0,12.871-32.755,30.824-86.1,30.824s-86.1-17.953-86.1-30.824c0-5.695,6.141-12.054,16.848-17.446
	c10.747-5.413,25.283-9.443,41.561-11.595v18.592c0,10.082,8.203,18.286,18.286,18.286h18.808c10.082,0,18.286-8.204,18.286-18.286
	v-18.592C299.967,387.414,314.504,391.444,325.251,396.856z M268.016,403.853c0,1.441-1.172,2.612-2.612,2.612h-18.808
	c-1.44,0-2.612-1.171-2.612-2.612v-44.408h24.033V403.853z M496.327,330.71c0,7.203-5.859,13.061-13.061,13.061H28.735
	c-7.202,0-13.061-5.859-13.061-13.061V79.935c0-7.202,5.859-13.061,13.061-13.061h454.531c7.202,0,13.061,5.859,13.061,13.061
	V330.71z"/>
<path d="M31.347,317.649h449.306V82.547H31.347V317.649z M47.02,98.22H464.98v203.755H47.02V98.22z"/>
</svg>